<svg xmlns="http://www.w3.org/2000/svg" xmlns:xlink="http://www.w3.org/1999/xlink" version="1.1" x="0px" y="0px" viewBox="0 0 100 100" enable-background="new 0 0 100 100" xml:space="preserve"><g><path d="M21.904,35.877c0.803,0.178,1.608-0.329,1.79-1.137c0.013-0.058,1.341-5.845,5.35-11.32   c5.262-7.185,12.478-10.493,21.462-9.84c7.269,0.531,13.012,3.258,17.071,8.105c8.635,10.311,7.016,26.977,6.998,27.144   c-0.085,0.823,0.513,1.561,1.336,1.647c0.054,0.006,0.106,0.008,0.158,0.008c0.758,0,1.409-0.572,1.49-1.343   c0.076-0.732,1.778-18.072-7.672-29.371c-4.602-5.5-11.049-8.59-19.163-9.183C26.638,8.841,20.822,33.836,20.766,34.09   C20.586,34.898,21.096,35.697,21.904,35.877z"></path><path d="M50.89,77.829c-11.228-2.207-18.049,5.094-18.334,5.405c-0.558,0.61-0.515,1.555,0.094,2.114   c0.608,0.56,1.556,0.52,2.118-0.088c0.241-0.261,6.01-6.36,15.544-4.488c2.564,0.504,6.73,4.766,8.753,7.334   c0.296,0.376,0.735,0.572,1.18,0.572c0.325,0,0.652-0.105,0.927-0.321c0.65-0.513,0.764-1.455,0.251-2.106   C60.817,85.481,55.379,78.71,50.89,77.829z"></path><path d="M53.301,86.361c-4.134-2.72-8.283-2.594-11.997,0.361c-0.648,0.517-0.755,1.46-0.239,2.108   c0.296,0.372,0.733,0.565,1.174,0.565c0.327,0,0.657-0.106,0.933-0.326c2.713-2.16,5.408-2.225,8.48-0.203   c0.691,0.456,1.622,0.266,2.077-0.429C54.185,87.747,53.993,86.816,53.301,86.361z"></path><path d="M37.43,17.97c-5.119,3.743-6.064,7.913-6.897,11.592c-0.933,4.115-1.606,7.088-7.887,8.999   c-0.792,0.241-1.24,1.079-0.999,1.872c0.197,0.647,0.792,1.064,1.435,1.064c0.145,0,0.292-0.021,0.437-0.065   c7.948-2.419,8.961-6.886,9.94-11.206c0.787-3.473,1.53-6.753,5.742-9.833c0.669-0.489,0.814-1.428,0.326-2.096   C39.036,17.626,38.096,17.481,37.43,17.97z"></path><path d="M22.754,61.649c0.753-0.28,18.508-6.943,23.585-12.609c5.042-5.628,7.545-20.47,7.648-21.099   c0.136-0.817-0.417-1.589-1.234-1.725c-0.812-0.135-1.59,0.417-1.725,1.235c-0.024,0.146-2.463,14.608-6.924,19.587   c-4.585,5.118-22.221,11.734-22.398,11.801c-0.776,0.289-1.171,1.153-0.881,1.93c0.225,0.604,0.797,0.976,1.405,0.976   C22.404,61.744,22.582,61.714,22.754,61.649z"></path><path d="M50.967,52.55c4.786-5.253,7.371-15.798,8.696-23.72c0.333-2.001-0.181-4.074-1.409-5.688s-3.09-2.662-5.105-2.874   c-3.871-0.399-7.354,2.278-7.952,6.111c-1.232,7.791-2.944,13.329-4.82,15.594c-3.234,3.905-14.737,7.522-18.896,8.587   c-0.803,0.205-1.287,1.022-1.082,1.825c0.205,0.802,1.023,1.289,1.825,1.081c0.649-0.166,15.947-4.126,20.464-9.579   c2.838-3.427,4.543-11.158,5.473-17.042c0.351-2.255,2.408-3.838,4.673-3.594c1.198,0.127,2.304,0.75,3.034,1.708   c0.729,0.958,1.034,2.19,0.837,3.377c-1.03,6.159-3.435,17.231-7.955,22.193c-5.897,6.474-25.565,14.585-25.763,14.667   c-0.767,0.314-1.133,1.19-0.819,1.957c0.238,0.58,0.798,0.931,1.388,0.931c0.189,0,0.382-0.036,0.568-0.112   C24.958,67.63,44.616,59.521,50.967,52.55z"></path><path d="M76.162,52c-0.01,0-0.019,0-0.027,0c-1.688,0-2.312-0.15-2.704-0.529c-1.607-1.557-2.006-6.647-2.108-13.962   c-0.195-13.841-9.863-21.571-18.86-21.865c-9.016-0.299-11.12,6.1-13.145,12.26c-1.066,3.242-2.168,6.606-4.228,9.626   c-3.918,5.744-13.995,5.879-14.097,5.88c-0.828,0.005-1.496,0.475-1.491,1.303C19.505,45.539,20.175,46,21,46   c0.002,0,0.004,0,0.006,0c0.478,0,11.75,0.078,16.561-6.975c2.299-3.371,3.521-6.984,4.599-10.264   c2.246-6.831,3.718-10.335,10.198-10.121c7.609,0.249,15.789,7.005,15.958,18.986c0.126,8.909,0.627,13.87,3.021,16.19   c1.418,1.373,3.248,1.585,4.588,1.585c0.088,0,0.173,0.002,0.256,0.001c0.828-0.015,1.488-0.899,1.474-1.727   C77.646,52.855,76.978,52,76.162,52z"></path><path d="M76.221,58.847c-3.733-0.383-6.463-1.734-8.112-4.018c-2.062-2.854-2.516-7.25-1.31-12.711   c0.179-0.809-0.332-1.609-1.142-1.788c-0.807-0.176-1.609,0.333-1.788,1.142c-1.396,6.32-0.771,11.546,1.808,15.115   c2.172,3.007,5.617,4.771,10.237,5.245c0.053,0.005,0.104,0.008,0.155,0.008c0.76,0,1.411-0.575,1.49-1.347   C77.644,59.668,77.045,58.931,76.221,58.847z"></path><path d="M63.708,62.506c1.038-0.524,2.146-0.928,3.313-1.181c-2.158-1.593-4.151-3.56-5.085-5.817   c-4.456-10.772,2.515-24.038,2.586-24.17c0.391-0.73,0.115-1.639-0.614-2.03c-0.732-0.394-1.641-0.116-2.03,0.613   c-0.317,0.592-7.719,14.636-2.713,26.734C60.091,58.895,61.786,60.855,63.708,62.506z"></path><path d="M62.291,63.319c-3.405-2.502-6.778-4.525-9.828-5.232c0.796-0.723,1.677-1.609,2.759-2.789   c0.56-0.61,0.519-1.56-0.092-2.119c-0.61-0.559-1.558-0.519-2.119,0.092c-3.039,3.313-4.192,4.02-6.979,5.728   c-0.536,0.329-1.128,0.691-1.797,1.111c-0.702,0.44-0.913,1.366-0.473,2.068c0.285,0.453,0.773,0.702,1.272,0.702   c0.272,0,0.548-0.074,0.796-0.229c0.659-0.414,1.241-0.771,1.769-1.095c0.265-0.162,0.514-0.315,0.756-0.465   c0.191,0.011,0.387-0.015,0.578-0.083c2.642-0.925,6.761,1.275,10.976,4.302C60.628,64.563,61.424,63.893,62.291,63.319z"></path><path d="M58.275,67.363c-2.007-1.055-4.217-1.9-6.623-2.374c-13.751-2.704-26.463,6.202-26.998,6.582   c-0.674,0.48-0.832,1.417-0.351,2.092c0.481,0.675,1.416,0.834,2.092,0.352c0.12-0.086,12.176-8.541,24.677-6.082   c2.107,0.415,4.06,1.17,5.845,2.118C57.276,69.102,57.729,68.201,58.275,67.363z"></path><path d="M56,75c0-0.599,0.05-1.185,0.123-1.764c-1.74-0.971-3.67-1.773-5.806-2.237c-11.616-2.523-21.735,5.539-22.159,5.883   c-0.644,0.521-0.743,1.466-0.221,2.109c0.521,0.644,1.465,0.743,2.109,0.221c0.093-0.075,9.409-7.504,19.634-5.281   c2.428,0.527,4.579,1.581,6.443,2.834C56.05,76.185,56,75.599,56,75z"></path><path d="M70,64c-6.075,0-11,4.925-11,11s4.925,11,11,11s11-4.925,11-11S76.075,64,70,64z M76,77h-4v4h-4v-4h-4v-4h4v-4h4v4h4V77z"></path></g></svg>